<svg xmlns="http://www.w3.org/2000/svg" viewBox="0 0 500 500" width="500" height="500">
  <style>
    .st0{fill:#6C63FF;}
    .st1{fill:#3F3D56;}
    .st2{fill:#FFFFFF;}
    .st3{fill:#F2F2F2;}
    .st4{fill:#E6E6E6;}
  </style>
  <g>
    <!-- Laptop base -->
    <path class="st1" d="M400,350H100c-5.5,0-10-4.5-10-10V150c0-5.5,4.5-10,10-10h300c5.5,0,10,4.5,10,10v190C410,345.5,405.5,350,400,350z"/>
    <path class="st3" d="M390,340H110c-2.8,0-5-2.2-5-5V160c0-2.8,2.2-5,5-5h280c2.8,0,5,2.2,5,5v175C395,337.8,392.8,340,390,340z"/>
    
    <!-- Laptop stand -->
    <path class="st1" d="M450,370H50c-2.8,0-5-2.2-5-5v-15c0-2.8,2.2-5,5-5h400c2.8,0,5,2.2,5,5v15C455,367.8,452.8,370,450,370z"/>
    
    <!-- Screen content -->
    <rect x="130" y="180" class="st4" width="240" height="20"/>
    <rect x="130" y="210" class="st4" width="180" height="10"/>
    <rect x="130" y="230" class="st4" width="220" height="10"/>
    <rect x="130" y="250" class="st4" width="200" height="10"/>
    
    <!-- Code brackets -->
    <path class="st0" d="M160,290l-20,20l20,20"/>
    <path class="st0" d="M200,290l20,20l-20,20"/>
    <path class="st0" d="M170,330l20-60"/>
    
    <!-- Floating elements -->
    <circle class="st0" cx="350" cy="200" r="15"/>
    <rect x="320" y="240" class="st0" width="60" height="30" rx="5" ry="5"/>
    <path class="st0" d="M350,290c-8.3,0-15,6.7-15,15s6.7,15,15,15s15-6.7,15-15S358.3,290,350,290z M350,310c-2.8,0-5-2.2-5-5s2.2-5,5-5s5,2.2,5,5S352.8,310,350,310z"/>
  </g>
  
  <!-- Person -->
  <g transform="translate(50, 50) scale(0.8)">
    <path class="st1" d="M200,400c-22.1,0-40-17.9-40-40v-60h80v60C240,382.1,222.1,400,200,400z"/>
    <circle class="st1" cx="200" cy="260" r="40"/>
    <path class="st2" d="M180,270c0,0,0-10,20-10s20,10,20,10"/>
    <circle class="st2" cx="180" cy="250" r="5"/>
    <circle class="st2" cx="220" cy="250" r="5"/>
  </g>
  
  <!-- Decorative elements -->
  <circle class="st0" cx="50" cy="50" r="10" opacity="0.5"/>
  <circle class="st0" cx="450" cy="100" r="15" opacity="0.3"/>
  <circle class="st0" cx="80" cy="400" r="20" opacity="0.4"/>
  <circle class="st0" cx="420" cy="450" r="12" opacity="0.6"/>
</svg> 